<svg id="Layer_1" data-name="Layer 1" xmlns="http://www.w3.org/2000/svg" viewBox="0 0 833.93 212.21"><defs><style>.cls-1{fill:#f90;}</style></defs><path d="M329.82,458.68a64.27,64.27,0,0,0-22.95,3.76,52,52,0,0,0-17,10.47,54.62,54.62,0,0,0-12.79,17.75,52.89,52.89,0,0,0-4.63,22.07,52.79,52.79,0,0,0,32.14,49.33q10.71,4.71,25.26,4.72h56.6V538.31h-56.6a33,33,0,0,1-12.95-2.24,24.93,24.93,0,0,1-8.8-6.07,24,24,0,0,1-4.95-7.76,25.5,25.5,0,0,1,.4-19.58,26.25,26.25,0,0,1,5.83-8.32,27.41,27.41,0,0,1,8.32-5.12,32.94,32.94,0,0,1,12.15-1.91H445.43v79.47h29.1V487.31h47.33V458.68Z" transform="translate(-123.42 -433.69)"/><path d="M646.26,562a23.28,23.28,0,0,1,1,2.4q.39,1.11.72,2.4H615.4c-.22-.75-.43-1.42-.64-2s-.43-1.15-.64-1.68L608.36,550h-64l-5.59,13c-.22.64-.43,1.28-.64,1.92a11.24,11.24,0,0,0-.48,1.92H504.27a22.76,22.76,0,0,1,.72-2.4,19.6,19.6,0,0,1,1-2.4l38.69-85.71q4.63-10.06,12.16-15t19.18-5q11.36,0,19,5t12.23,15Zm-48.45-35.82-16.63-38.69a5.61,5.61,0,0,0-2.08-2.56,5.33,5.33,0,0,0-2.88-.8,5.42,5.42,0,0,0-2.71.72,5.09,5.09,0,0,0-2.08,2.64L555,526.16Z" transform="translate(-123.42 -433.69)"/><path d="M793.53,545.83a29.32,29.32,0,0,1-1.68,10.47,20.13,20.13,0,0,1-4.48,7.2,17.85,17.85,0,0,1-6.47,4.16,22.18,22.18,0,0,1-7.68,1.35,33.56,33.56,0,0,1-12.07-2,22.38,22.38,0,0,1-9-6.48l-59.32-68.6a3.55,3.55,0,0,0-2.56-1.44,2.65,2.65,0,0,0-1.92.8,3.05,3.05,0,0,0-.8,2.24v73.24H659.05V481.55a32.59,32.59,0,0,1,1.84-11.67,20.08,20.08,0,0,1,5.2-7.84,20.32,20.32,0,0,1,8-4.4,35.92,35.92,0,0,1,10.08-1.36A27.19,27.19,0,0,1,707.5,467l52.77,63.16a3.11,3.11,0,0,0,1.28,1,4,4,0,0,0,1.44.24c1.49,0,2.24-1,2.24-2.88V458.68h28.3Z" transform="translate(-123.42 -433.69)"/><path d="M923.05,458.68v28.63H840.86c-1.71,0-2.56.9-2.56,2.71v12.32h84.27v20.78H838.3v13.12c0,1.91.85,2.87,2.56,2.87h82.19v27.67h-98.5q-15.19,0-15.19-15V473.23q0-14.53,15.35-14.55Z" transform="translate(-123.42 -433.69)"/><circle cx="178.47" cy="504.41" r="8.62" transform="translate(-234.53 -379.19) rotate(-13.28)"/><path d="M213.47,504.41a8.62,8.62,0,1,0-8.62,8.61A8.62,8.62,0,0,0,213.47,504.41Z" transform="translate(-123.42 -433.69)"/><path d="M255.68,491a54.16,54.16,0,0,0-12.74-17.67A51.39,51.39,0,0,0,226,462.93a48.47,48.47,0,0,0-5.07-1.63l12.06-17a6.73,6.73,0,1,0-11-7.8l-16.14,22.71-1.63,0-1.09,0H180.36c-1.28,0-2.53,0-3.75.1l-.76,0c-1.12.06-2.22.15-3.29.25l-.28,0-16.4-23.08a6.73,6.73,0,1,0-11,7.8L158,462.8l-.37.13a51.39,51.39,0,0,0-16.95,10.42,54.29,54.29,0,0,0-4.46,4.65,1.09,1.09,0,0,1-.08.15c-.56.67-1.11,1.35-1.65,2.05l-.14.1A54.58,54.58,0,0,0,128,491a49.08,49.08,0,0,0-2.08,5.36l.07,0A53.63,53.63,0,0,0,123.42,513c0,1.19,0,2.36.11,3.52l0,0a53.23,53.23,0,0,0,2.45,13.3H126c.33,1,.68,2,1.08,3l.09.22,0,0a52.22,52.22,0,0,0,28.22,28.94q10.67,4.7,25.15,4.7h22.65a79,79,0,0,0,8-.41h.23q3.36-.36,6.47-1h0l.22-.06a51.73,51.73,0,0,0,10.22-3.22,52.79,52.79,0,0,0,32-49.1A52.68,52.68,0,0,0,255.68,491Zm-88,45.2a24.81,24.81,0,0,1-8.75-6.05,23.91,23.91,0,0,1-4.93-7.72,25.36,25.36,0,0,1,.39-19.5,26.3,26.3,0,0,1,5.81-8.27,27.14,27.14,0,0,1,8.28-5.09,32.59,32.59,0,0,1,12.07-1.91H203.1a32.67,32.67,0,0,1,12.09,1.91,27.14,27.14,0,0,1,8.28,5.09,26.14,26.14,0,0,1,5.81,8.27,24.61,24.61,0,0,1,2.15,10.19,25,25,0,0,1-1.75,9.31,24.11,24.11,0,0,1-4.94,7.72,24.81,24.81,0,0,1-8.75,6.05,33.12,33.12,0,0,1-12.89,2.23H180.55A33.12,33.12,0,0,1,167.66,536.22Z" transform="translate(-123.42 -433.69)"/><path d="M942.66,459.69v1.9H939v9.58H936.7v-9.58H933v-1.9Zm12.41,11.48-.42-6.76c0-.88,0-2-.09-3.21h-.12c-.3,1-.64,2.37-1,3.43L951.4,471H949L947,464.46c-.21-.89-.54-2.24-.8-3.26H946c0,1.06,0,2.16-.09,3.21l-.42,6.76h-2.2l.85-11.48h3.42l2,5.61c.26.89.47,1.73.76,2.91h0c.3-1,.55-2,.81-2.87l2-5.65h3.29l.89,11.48Z" transform="translate(-123.42 -433.69)"/></svg>