<svg id="svg" version="1.1" xmlns="http://www.w3.org/2000/svg" xmlns:xlink="http://www.w3.org/1999/xlink" width="400" height="94.65043872063401" viewBox="0, 0, 400,94.65043872063401"><g id="svgg"><path id="path0" d="M50.333 82.333 L 50.333 94.167 53.500 94.167 L 56.667 94.167 56.667 88.294 L 56.667 82.421 57.208 83.257 C 57.506 83.717,57.841 84.241,57.952 84.422 C 59.345 86.681,59.667 87.230,59.667 87.354 C 59.667 87.434,59.742 87.500,59.833 87.500 C 59.925 87.500,60.000 87.572,60.000 87.661 C 60.000 87.749,60.413 88.461,60.917 89.243 C 61.421 90.024,61.833 90.739,61.833 90.832 C 61.833 90.924,61.891 91.000,61.960 91.000 C 62.030 91.000,62.162 91.169,62.252 91.375 C 62.404 91.721,62.540 91.754,64.021 91.797 L 65.625 91.845 67.337 88.964 C 68.279 87.380,69.462 85.408,69.967 84.583 C 70.472 83.758,71.022 82.858,71.189 82.583 C 71.489 82.093,71.494 82.199,71.497 88.125 L 71.500 94.167 74.667 94.167 L 77.833 94.167 77.833 82.333 L 77.833 70.500 74.958 70.502 L 72.083 70.503 70.426 73.293 C 69.514 74.828,67.845 77.626,66.717 79.513 C 65.589 81.399,64.667 83.030,64.667 83.138 C 64.667 83.245,64.592 83.333,64.500 83.333 C 64.408 83.333,64.333 83.450,64.333 83.593 C 64.333 84.057,64.082 83.722,62.677 81.384 C 61.917 80.118,60.963 78.558,60.558 77.917 C 60.152 77.275,59.751 76.600,59.667 76.417 C 59.582 76.233,59.180 75.558,58.774 74.917 C 58.368 74.275,57.598 73.019,57.063 72.125 L 56.091 70.500 53.212 70.500 L 50.333 70.500 50.333 82.333 M91.167 77.958 C 91.167 87.227,91.375 88.487,93.327 90.999 C 95.464 93.750,101.347 95.370,105.397 94.323 C 109.754 93.196,111.992 91.053,113.003 87.041 C 113.302 85.855,113.328 85.131,113.331 78.125 L 113.333 70.500 110.000 70.500 L 106.667 70.500 106.661 77.458 C 106.654 85.825,106.449 87.046,104.882 88.098 C 103.009 89.354,99.894 88.923,98.900 87.269 C 98.109 85.954,98.111 85.979,98.043 78.042 L 97.979 70.500 94.573 70.500 L 91.167 70.500 91.167 77.958 M126.667 82.333 L 126.667 94.167 135.667 94.167 L 144.667 94.167 144.667 91.417 L 144.667 88.667 139.083 88.667 L 133.500 88.667 133.500 79.583 L 133.500 70.500 130.083 70.500 L 126.667 70.500 126.667 82.333 M150.833 73.250 L 150.833 76.000 154.417 76.000 L 158.000 76.000 158.000 85.083 L 158.000 94.167 161.417 94.167 L 164.833 94.167 164.833 85.083 L 164.833 76.000 168.417 76.000 L 172.000 76.000 172.000 73.250 L 172.000 70.500 161.417 70.500 L 150.833 70.500 150.833 73.250 M182.833 82.333 L 182.833 94.167 186.333 94.167 L 189.833 94.167 189.833 82.333 L 189.833 70.500 186.333 70.500 L 182.833 70.500 182.833 82.333 M203.167 82.333 L 203.167 94.167 206.417 94.167 L 209.667 94.167 209.667 88.500 C 209.667 83.373,209.751 82.223,210.061 83.125 C 210.117 83.285,210.653 84.204,211.253 85.167 C 211.853 86.129,212.570 87.292,212.846 87.750 C 213.122 88.208,213.645 89.060,214.007 89.642 C 214.370 90.224,214.667 90.768,214.667 90.850 C 214.667 90.933,214.730 91.000,214.807 91.000 C 214.884 91.000,215.032 91.188,215.136 91.417 C 215.319 91.818,215.384 91.833,216.886 91.833 L 218.445 91.833 219.389 90.320 C 219.908 89.487,220.333 88.737,220.333 88.653 C 220.333 88.569,220.390 88.499,220.458 88.499 C 220.527 88.498,220.665 88.329,220.765 88.124 C 221.189 87.253,222.084 85.712,222.445 85.234 C 222.658 84.951,222.833 84.664,222.833 84.598 C 222.833 84.531,223.042 84.163,223.297 83.780 C 223.552 83.397,223.870 82.866,224.005 82.600 C 224.226 82.164,224.254 82.715,224.294 88.141 L 224.337 94.167 227.502 94.167 L 230.667 94.167 230.667 82.333 L 230.667 70.500 227.785 70.500 L 224.904 70.500 224.247 71.625 C 223.885 72.244,223.477 72.975,223.341 73.250 C 223.205 73.525,223.035 73.775,222.964 73.806 C 222.892 73.836,222.833 73.942,222.833 74.040 C 222.833 74.138,222.660 74.451,222.448 74.734 C 221.958 75.391,220.667 77.647,220.667 77.848 C 220.667 77.932,220.600 78.000,220.519 78.000 C 220.438 78.000,220.329 78.131,220.277 78.292 C 220.224 78.452,220.009 78.854,219.799 79.186 C 218.852 80.679,218.167 81.864,218.167 82.009 C 218.167 82.096,218.106 82.167,218.031 82.167 C 217.957 82.167,217.793 82.429,217.667 82.750 C 217.541 83.071,217.377 83.333,217.302 83.333 C 217.228 83.333,217.167 83.461,217.167 83.617 C 217.167 84.048,216.990 83.802,215.409 81.167 C 214.612 79.837,213.631 78.246,213.230 77.630 C 212.828 77.015,212.500 76.477,212.500 76.435 C 212.500 76.393,211.999 75.547,211.386 74.555 C 210.774 73.562,209.967 72.244,209.595 71.626 L 208.917 70.501 206.042 70.501 L 203.167 70.500 203.167 82.333 M244.333 82.333 L 244.333 94.167 253.833 94.167 L 263.333 94.167 263.333 91.500 L 263.333 88.833 257.167 88.833 L 251.000 88.833 251.000 86.750 L 251.000 84.667 256.250 84.667 L 261.500 84.667 261.500 82.083 L 261.500 79.500 256.250 79.500 L 251.000 79.500 251.000 77.667 L 251.000 75.833 256.917 75.833 L 262.833 75.833 262.833 73.167 L 262.833 70.500 253.583 70.500 L 244.333 70.500 244.333 82.333 M275.833 82.317 L 275.833 94.167 282.056 94.167 C 291.485 94.167,293.360 93.729,297.050 90.667 C 299.595 88.554,301.095 82.509,299.944 79.000 C 299.661 78.138,299.553 77.859,299.108 76.833 C 298.296 74.964,295.813 72.613,293.833 71.839 C 293.512 71.713,293.175 71.562,293.083 71.502 C 292.992 71.442,292.617 71.311,292.250 71.211 C 291.883 71.110,291.283 70.936,290.917 70.824 C 290.453 70.682,288.055 70.597,283.042 70.544 L 275.833 70.468 275.833 82.317 M312.500 82.333 L 312.500 94.167 316.000 94.167 L 319.500 94.167 319.500 82.333 L 319.500 70.500 316.000 70.500 L 312.500 70.500 312.500 82.333 M339.896 71.458 C 339.659 71.985,339.349 72.679,339.209 73.000 C 339.069 73.321,338.747 74.033,338.493 74.583 C 338.239 75.133,337.791 76.146,337.497 76.833 C 336.796 78.475,336.689 78.718,335.586 81.167 C 335.070 82.313,334.585 83.400,334.509 83.583 C 334.432 83.767,334.136 84.426,333.851 85.049 C 333.566 85.672,333.333 86.214,333.333 86.254 C 333.333 86.294,333.067 86.909,332.741 87.621 C 332.415 88.334,332.085 89.067,332.008 89.250 C 331.931 89.433,331.665 90.033,331.416 90.583 C 331.168 91.133,330.848 91.883,330.706 92.250 C 330.564 92.617,330.394 92.992,330.330 93.083 C 330.265 93.175,330.163 93.456,330.103 93.708 L 329.994 94.167 333.467 94.167 L 336.940 94.167 337.853 91.875 L 338.765 89.583 343.614 89.539 L 348.464 89.495 349.381 91.789 L 350.299 94.083 353.900 94.128 C 355.880 94.153,357.500 94.129,357.500 94.076 C 357.500 94.022,357.323 93.590,357.106 93.114 C 356.889 92.639,356.543 91.875,356.337 91.417 C 356.131 90.958,355.784 90.187,355.565 89.703 C 355.346 89.219,355.167 88.792,355.167 88.753 C 355.167 88.714,354.934 88.172,354.649 87.549 C 353.071 84.097,352.667 83.188,352.667 83.093 C 352.667 83.050,352.450 82.543,352.185 81.966 C 351.920 81.389,351.535 80.542,351.329 80.083 C 351.123 79.625,350.702 78.706,350.394 78.041 C 350.086 77.376,349.833 76.797,349.833 76.754 C 349.833 76.712,349.638 76.243,349.399 75.713 C 349.160 75.183,348.866 74.525,348.745 74.250 C 348.625 73.975,348.186 73.019,347.770 72.125 L 347.013 70.500 343.671 70.500 L 340.329 70.500 339.896 71.458 M289.833 76.601 C 295.008 79.038,294.482 86.575,289.017 88.319 C 288.702 88.420,287.201 88.500,285.642 88.500 L 282.833 88.500 282.833 82.231 L 282.833 75.963 285.792 76.027 C 288.683 76.089,288.775 76.102,289.833 76.601 M343.833 77.977 C 343.833 78.136,343.896 78.338,343.973 78.425 C 344.050 78.512,344.208 78.846,344.324 79.167 C 344.441 79.487,344.635 79.975,344.756 80.250 C 345.532 82.013,345.667 82.353,345.667 82.554 C 345.667 82.677,345.718 82.829,345.781 82.892 C 345.901 83.012,346.327 84.160,346.331 84.375 C 346.332 84.444,345.106 84.500,343.606 84.500 L 340.880 84.500 340.960 84.081 C 341.004 83.850,341.106 83.621,341.187 83.571 C 341.267 83.521,341.333 83.368,341.333 83.230 C 341.333 83.092,341.514 82.590,341.734 82.115 C 342.306 80.879,342.612 80.144,342.752 79.667 C 342.819 79.438,342.926 79.175,342.990 79.083 C 343.054 78.992,343.206 78.600,343.328 78.214 C 343.544 77.529,343.833 77.393,343.833 77.977 " stroke="none" fill="#fc9c04" fill-rule="evenodd"></path><path id="path1" d="M222.833 0.183 C 220.354 0.671,219.139 1.059,217.876 1.764 C 214.793 3.485,212.806 5.687,210.930 9.463 C 210.095 11.145,209.759 11.863,208.963 13.667 C 208.153 15.505,208.020 15.801,207.617 16.667 C 206.543 18.971,205.833 20.540,205.833 20.610 C 205.833 20.653,205.598 21.189,205.311 21.802 C 204.805 22.883,204.536 23.466,203.268 26.223 C 202.937 26.942,202.667 27.565,202.667 27.609 C 202.667 27.652,202.432 28.189,202.145 28.802 C 201.236 30.741,200.708 31.891,200.329 32.750 C 199.485 34.665,199.272 35.139,198.753 36.250 C 198.453 36.892,198.040 37.792,197.835 38.250 C 197.630 38.708,197.284 39.479,197.065 39.963 C 196.846 40.447,196.667 40.874,196.667 40.912 C 196.667 40.949,196.301 41.753,195.853 42.698 C 195.063 44.368,194.522 45.558,194.086 46.583 C 193.656 47.594,193.344 48.285,192.618 49.833 C 191.146 52.975,190.943 53.455,190.583 54.625 L 190.366 55.333 198.855 55.333 C 205.503 55.333,207.357 55.288,207.404 55.125 C 207.820 53.671,209.374 49.839,210.545 47.375 L 210.723 47.000 226.593 47.000 L 242.462 47.000 242.716 47.542 C 243.326 48.840,244.000 50.347,244.000 50.413 C 244.000 50.453,244.217 50.957,244.482 51.534 C 245.396 53.526,245.667 54.164,245.667 54.324 C 245.667 54.412,245.754 54.675,245.860 54.909 L 246.054 55.333 254.290 55.333 L 262.526 55.333 262.420 54.792 C 262.314 54.251,262.260 54.101,261.778 52.997 C 261.637 52.675,261.442 52.225,261.344 51.997 C 261.247 51.770,261.101 51.471,261.020 51.333 C 260.938 51.196,260.792 50.896,260.694 50.667 C 260.596 50.438,260.212 49.586,259.841 48.775 C 259.470 47.964,259.167 47.275,259.167 47.243 C 259.167 47.212,258.750 46.300,258.240 45.218 C 257.730 44.136,257.252 43.100,257.177 42.917 C 257.012 42.510,256.698 41.821,255.161 38.500 C 254.504 37.079,253.852 35.654,253.713 35.333 C 253.380 34.566,252.744 33.158,252.169 31.917 C 251.718 30.942,251.389 30.213,250.549 28.333 C 250.324 27.829,249.838 26.779,249.470 26.000 C 249.102 25.221,248.736 24.433,248.658 24.250 C 248.580 24.067,248.212 23.253,247.841 22.442 C 247.470 21.631,247.167 20.941,247.167 20.910 C 247.167 20.878,246.766 20.005,246.276 18.968 C 245.400 17.113,245.231 16.742,244.503 15.083 C 239.818 4.412,236.948 1.449,230.073 0.186 C 228.896 -0.031,223.928 -0.032,222.833 0.183 M276.822 0.257 C 272.757 1.069,269.936 3.345,268.744 6.775 C 267.892 9.225,267.942 7.736,267.880 32.375 L 267.822 55.333 275.078 55.333 L 282.333 55.333 282.333 36.844 C 282.333 26.054,282.397 18.188,282.486 17.954 C 282.859 16.972,284.128 17.092,284.890 18.179 C 285.016 18.360,285.374 18.787,285.685 19.129 C 285.996 19.470,286.700 20.275,287.250 20.917 C 287.800 21.558,288.289 22.121,288.338 22.167 C 288.386 22.212,288.835 22.738,289.335 23.333 C 289.835 23.929,290.584 24.794,290.997 25.256 C 291.767 26.114,293.018 27.560,294.020 28.750 C 294.328 29.117,294.694 29.529,294.832 29.667 C 294.970 29.804,295.451 30.367,295.900 30.917 C 296.350 31.467,296.837 32.030,296.984 32.168 C 297.130 32.306,297.660 32.906,298.160 33.501 C 298.661 34.096,299.373 34.922,299.743 35.336 C 300.114 35.751,300.700 36.426,301.047 36.836 C 301.782 37.708,303.071 39.186,303.667 39.840 C 303.896 40.092,304.345 40.625,304.665 41.024 C 304.985 41.423,305.454 41.961,305.706 42.220 C 305.958 42.478,306.608 43.228,307.151 43.887 C 307.694 44.545,308.351 45.313,308.611 45.595 C 308.871 45.876,309.421 46.506,309.833 46.995 C 310.859 48.211,311.685 49.158,312.083 49.575 C 312.267 49.767,312.785 50.372,313.234 50.920 C 316.241 54.584,318.504 55.825,323.125 56.346 C 329.051 57.014,333.730 54.006,334.814 48.833 C 335.302 46.505,335.331 45.070,335.332 23.458 L 335.333 1.167 328.167 1.167 L 321.000 1.167 321.000 18.758 C 321.000 34.163,320.969 36.411,320.747 36.839 C 320.283 37.737,319.352 37.643,318.500 36.614 C 318.271 36.337,317.932 35.954,317.747 35.763 C 317.562 35.573,317.059 34.967,316.630 34.417 C 316.201 33.867,315.640 33.182,315.383 32.894 C 314.730 32.163,312.638 29.670,311.367 28.109 C 310.504 27.047,309.440 25.790,309.167 25.506 C 309.029 25.363,308.432 24.647,307.839 23.915 C 307.247 23.183,306.720 22.546,306.669 22.500 C 306.618 22.454,306.203 21.967,305.746 21.417 C 305.290 20.867,304.877 20.379,304.829 20.333 C 304.781 20.287,304.483 19.912,304.167 19.500 C 303.851 19.087,303.478 18.637,303.337 18.500 C 303.197 18.362,302.785 17.875,302.422 17.417 C 302.058 16.958,301.720 16.546,301.669 16.500 C 301.618 16.454,301.203 15.967,300.746 15.417 C 300.290 14.867,299.878 14.379,299.831 14.333 C 299.784 14.287,299.410 13.838,299.000 13.333 C 298.590 12.829,298.216 12.379,298.169 12.333 C 298.122 12.287,297.710 11.800,297.254 11.250 C 296.797 10.700,296.384 10.212,296.335 10.167 C 296.286 10.121,295.910 9.671,295.500 9.167 C 295.090 8.662,294.716 8.212,294.669 8.167 C 294.594 8.094,293.907 7.276,292.500 5.584 C 288.579 0.868,283.096 -0.995,276.822 0.257 M24.583 1.322 C 23.311 1.435,22.036 1.659,20.583 2.026 C 18.318 2.598,17.928 2.720,16.877 3.186 C 16.488 3.359,16.131 3.500,16.083 3.500 C 15.891 3.500,14.345 4.280,13.167 4.971 C 2.041 11.496,-2.904 25.512,1.631 37.667 C 2.478 39.938,3.750 42.509,4.411 43.286 C 4.927 43.893,5.000 44.001,5.000 44.160 C 5.000 44.255,5.059 44.333,5.131 44.333 C 5.203 44.333,5.403 44.577,5.576 44.875 C 6.992 47.313,12.659 51.586,16.583 53.175 C 18.742 54.049,20.423 54.493,23.583 55.025 C 25.450 55.340,43.709 55.349,45.417 55.036 C 49.585 54.273,51.460 53.703,54.000 52.428 C 62.111 48.356,66.955 41.860,68.674 32.750 C 69.399 28.906,68.596 21.135,67.189 18.377 C 67.106 18.215,66.964 17.896,66.873 17.667 C 66.524 16.789,65.579 14.914,65.459 14.861 C 65.390 14.831,65.333 14.735,65.333 14.649 C 65.333 14.376,63.733 12.038,62.667 10.752 C 61.370 9.190,58.708 6.789,57.250 5.868 C 56.792 5.579,56.338 5.284,56.242 5.213 C 56.058 5.077,55.886 4.978,54.667 4.307 C 53.243 3.524,50.112 2.394,48.333 2.022 C 47.829 1.916,46.892 1.704,46.250 1.551 C 44.989 1.249,27.496 1.065,24.583 1.322 M99.083 1.329 C 97.507 1.461,96.337 1.689,93.750 2.370 C 86.363 4.313,79.202 10.768,76.501 17.917 C 76.432 18.100,76.283 18.475,76.172 18.750 C 75.982 19.217,75.701 20.069,75.348 21.250 C 75.200 21.745,74.992 22.896,74.668 25.014 C 74.171 28.261,74.677 33.391,75.837 36.885 C 76.624 39.253,78.829 43.571,79.372 43.806 C 79.442 43.836,79.500 43.967,79.500 44.097 C 79.500 44.227,79.559 44.333,79.631 44.333 C 79.703 44.333,79.903 44.577,80.076 44.875 C 81.478 47.289,87.299 51.680,91.083 53.178 C 93.282 54.048,94.057 54.259,97.833 55.010 C 98.661 55.174,102.788 55.241,115.292 55.290 L 131.667 55.355 131.667 48.094 L 131.667 40.833 116.205 40.833 L 100.742 40.833 99.123 40.422 C 95.724 39.560,93.129 37.839,91.409 35.308 C 91.138 34.909,90.860 34.558,90.792 34.528 C 90.723 34.497,90.667 34.403,90.667 34.318 C 90.667 34.233,90.522 33.845,90.345 33.457 C 89.017 30.542,88.924 24.906,90.182 23.592 C 90.265 23.505,90.333 23.335,90.333 23.215 C 90.333 22.528,92.685 19.484,93.917 18.576 C 94.283 18.306,94.621 18.041,94.667 17.987 C 94.845 17.775,96.698 16.835,97.454 16.573 C 99.913 15.718,97.764 15.774,130.542 15.713 L 161.000 15.657 161.000 35.495 L 161.000 55.333 168.417 55.333 L 175.833 55.333 175.833 35.500 L 175.833 15.667 187.667 15.667 L 199.500 15.667 199.500 8.417 L 199.500 1.167 149.958 1.192 C 122.710 1.207,99.817 1.268,99.083 1.329 M348.250 1.346 C 345.842 1.861,344.310 3.088,343.449 5.190 L 343.083 6.083 343.083 28.083 C 343.083 50.846,343.073 50.463,343.720 51.833 C 344.144 52.731,345.211 53.830,346.167 54.354 C 347.886 55.296,346.136 55.237,374.125 55.292 L 400.000 55.342 400.000 48.338 L 400.000 41.333 379.521 41.333 C 368.257 41.333,358.816 41.288,358.540 41.233 C 357.748 41.075,357.667 40.673,357.667 36.909 L 357.667 33.500 378.750 33.500 L 399.833 33.500 399.833 28.167 L 399.833 22.833 378.750 22.833 L 357.667 22.833 357.672 19.625 C 357.676 17.027,357.725 16.353,357.929 16.083 C 358.178 15.754,358.402 15.750,379.090 15.706 L 400.000 15.663 400.000 8.415 L 400.000 1.167 374.458 1.185 C 360.410 1.195,348.617 1.267,348.250 1.346 M227.355 14.247 C 228.234 14.634,228.442 14.862,228.970 16.010 C 229.475 17.112,229.581 17.353,230.497 19.500 C 230.790 20.188,231.163 21.050,231.326 21.417 C 232.018 22.973,232.571 24.258,232.833 24.917 C 233.049 25.458,233.434 26.349,233.913 27.417 C 234.160 27.967,234.459 28.642,234.578 28.917 C 234.697 29.192,234.953 29.772,235.147 30.207 C 235.341 30.641,235.500 31.036,235.500 31.083 C 235.500 31.131,235.650 31.507,235.833 31.918 C 236.602 33.645,236.796 34.103,236.906 34.458 L 237.022 34.833 226.583 34.833 L 216.144 34.833 216.262 34.458 C 216.327 34.252,216.548 33.708,216.754 33.250 C 217.660 31.233,217.833 30.832,217.833 30.750 C 217.833 30.702,217.991 30.308,218.183 29.873 C 218.376 29.439,218.597 28.933,218.676 28.750 C 218.754 28.567,219.052 27.892,219.339 27.250 C 219.626 26.608,220.085 25.521,220.360 24.833 C 220.635 24.146,220.974 23.321,221.114 23.000 C 221.253 22.679,221.431 22.267,221.509 22.083 C 221.587 21.900,221.886 21.225,222.172 20.583 C 222.459 19.942,222.905 18.892,223.164 18.250 C 223.948 16.305,224.643 14.894,224.937 14.649 C 225.704 14.009,226.510 13.875,227.355 14.247 M44.083 15.986 C 44.450 16.098,45.012 16.265,45.333 16.356 C 45.886 16.513,46.197 16.633,47.167 17.062 C 52.408 19.383,55.448 26.061,53.814 31.667 C 52.684 35.542,49.147 39.194,45.667 40.080 C 45.438 40.139,44.688 40.331,44.000 40.508 C 42.279 40.951,26.780 41.006,25.094 40.575 C 21.253 39.594,18.706 37.955,16.909 35.308 C 16.639 34.909,16.380 34.546,16.334 34.500 C 14.395 32.572,14.388 23.900,16.325 22.167 C 16.376 22.121,16.695 21.659,17.034 21.140 C 17.623 20.238,19.422 18.333,19.684 18.333 C 19.753 18.333,19.909 18.235,20.030 18.114 C 20.991 17.157,24.289 15.977,26.583 15.769 C 28.372 15.606,43.452 15.794,44.083 15.986 " stroke="none" fill="#040404" fill-rule="evenodd"></path><path id="path2" d="" stroke="none" fill="#c0a004" fill-rule="evenodd"></path><path id="path3" d="" stroke="none" fill="#405404" fill-rule="evenodd"></path><path id="path4" d="" stroke="none" fill="#440404" fill-rule="evenodd"></path></g></svg>