<svg id="Layer_1" data-name="Layer 1" xmlns="http://www.w3.org/2000/svg" viewBox="0 0 833.93 212.21"><defs><style>.cls-1{fill:#f90;}</style></defs><circle cx="178.47" cy="504.41" r="8.62" transform="translate(-234.53 -379.19) rotate(-13.28)"/><path d="M213.47,504.41a8.62,8.62,0,1,0-8.62,8.61A8.62,8.62,0,0,0,213.47,504.41Z" transform="translate(-123.42 -433.69)"/><path d="M255.68,491a54.16,54.16,0,0,0-12.74-17.67A51.39,51.39,0,0,0,226,462.93a48.47,48.47,0,0,0-5.07-1.63l12.06-17a6.73,6.73,0,1,0-11-7.8l-16.14,22.71-1.63,0-1.09,0H180.36c-1.28,0-2.53,0-3.75.1l-.76,0c-1.12.06-2.22.15-3.29.25l-.28,0-16.4-23.08a6.73,6.73,0,1,0-11,7.8L158,462.8l-.37.13a51.39,51.39,0,0,0-16.95,10.42,54.29,54.29,0,0,0-4.46,4.65,1.09,1.09,0,0,1-.08.15c-.56.67-1.11,1.35-1.65,2.05l-.14.1A54.58,54.58,0,0,0,128,491a49.08,49.08,0,0,0-2.08,5.36l.07,0A53.63,53.63,0,0,0,123.42,513c0,1.19,0,2.36.11,3.52l0,0a53.23,53.23,0,0,0,2.45,13.3H126c.33,1,.68,2,1.08,3l.09.22,0,0a52.22,52.22,0,0,0,28.22,28.94q10.67,4.7,25.15,4.7h22.65a79,79,0,0,0,8-.41h.23q3.36-.36,6.47-1h0l.22-.06a51.73,51.73,0,0,0,10.22-3.22,52.79,52.79,0,0,0,32-49.1A52.68,52.68,0,0,0,255.68,491Zm-88,45.2a24.81,24.81,0,0,1-8.75-6.05,23.91,23.91,0,0,1-4.93-7.72,25.36,25.36,0,0,1,.39-19.5,26.3,26.3,0,0,1,5.81-8.27,27.14,27.14,0,0,1,8.28-5.09,32.59,32.59,0,0,1,12.07-1.91H203.1a32.67,32.67,0,0,1,12.09,1.91,27.14,27.14,0,0,1,8.28,5.09,26.14,26.14,0,0,1,5.81,8.27,24.61,24.61,0,0,1,2.15,10.19,25,25,0,0,1-1.75,9.31,24.11,24.11,0,0,1-4.94,7.72,24.81,24.81,0,0,1-8.75,6.05,33.12,33.12,0,0,1-12.89,2.23H180.55A33.12,33.12,0,0,1,167.66,536.22Z" transform="translate(-123.42 -433.69)"/></svg>